<?xml version="1.0" encoding="utf-8"?>
<!-- Generator: Adobe Illustrator 19.2.1, SVG Export Plug-In . SVG Version: 6.00 Build 0)  -->
<svg version="1.1" id="Layer_1" xmlns="http://www.w3.org/2000/svg" xmlns:xlink="http://www.w3.org/1999/xlink" x="0px" y="0px"
	 viewBox="0 0 29 29.1" style="enable-background:new 0 0 29 29.1;" xml:space="preserve">
<style type="text/css">
	.st0{fill:#639A3A;}
</style>
<g>
	<path class="st0" d="M12.5,25.1c-3.3,0-6.5-1.3-8.9-3.7c-4.9-4.9-4.9-12.9,0-17.7C6,1.3,9.2,0,12.5,0c3.4,0,6.5,1.3,8.9,3.7
		c2.4,2.4,3.7,5.5,3.7,8.9c0,3.4-1.3,6.5-3.7,8.9C19,23.8,15.9,25.1,12.5,25.1z M12.5,4.2c-2.2,0-4.3,0.9-5.9,2.5
		c-3.3,3.3-3.3,8.6,0,11.9c1.6,1.6,3.7,2.5,5.9,2.5c2.2,0,4.3-0.9,5.9-2.5c1.6-1.6,2.5-3.7,2.5-5.9c0-2.2-0.9-4.3-2.5-5.9
		C16.9,5,14.8,4.2,12.5,4.2z"/>
	<path class="st0" d="M26.9,29.1c-0.5,0-1.1-0.2-1.5-0.6l-6.3-6.3c-0.8-0.8-0.8-2.1,0-2.9c0.8-0.8,2.1-0.8,2.9,0l6.3,6.3
		c0.8,0.8,0.8,2.1,0,2.9C28,28.9,27.5,29.1,26.9,29.1z"/>
</g>
</svg>
